<svg width="24" height="24" viewBox="0 0 24 24" fill="none" xmlns="http://www.w3.org/2000/svg">
    <path fill-rule="evenodd" clip-rule="evenodd" d="M2.53357 3.59519L10.2621 11.3239C11.2185 12.2801 12.7813 12.2801 13.7375 11.3239L21.4665 3.59519C21.5625 3.49919 21.5255 3.33647 21.3973 3.29135C21.1432 3.20183 20.8703 3.15335 20.5861 3.15335H3.41365C3.12973 3.15335 2.85685 3.20207 2.60269 3.29135C2.47453 3.33647 2.43757 3.49895 2.53357 3.59519ZM15.5673 11.8296C15.4989 11.7571 15.5003 11.6434 15.5709 11.573L22.5491 4.59479C22.6415 4.50239 22.7973 4.53239 22.8486 4.65287C22.9741 4.94759 23.0437 5.27135 23.0437 5.61071V18.3893C23.0437 18.6734 22.9948 18.9466 22.9053 19.201C22.8594 19.3313 22.6931 19.3668 22.5981 19.2662L15.5673 11.8296ZM1.43461 19.3536C1.34221 19.4515 1.17997 19.4208 1.13005 19.2953C1.01773 19.0147 0.956055 18.709 0.956055 18.3893V5.61071C0.956055 5.27135 1.02565 4.94759 1.15141 4.65287C1.20277 4.53239 1.35829 4.50239 1.45093 4.59479L8.48845 11.6323C8.55877 11.7026 8.56045 11.8166 8.49205 11.8889L1.43461 19.3536ZM9.57757 12.8786L2.47693 20.3892C2.38645 20.4847 2.42221 20.6409 2.54533 20.6877C2.81533 20.7905 3.10813 20.8466 3.41341 20.8466H20.5859C20.9257 20.8466 21.2497 20.777 21.5445 20.6513C21.663 20.6006 21.6945 20.449 21.6059 20.3554L14.4921 12.8306C14.4289 12.7639 14.3281 12.7536 14.2525 12.8062C12.9289 13.7328 11.1541 13.7496 9.81325 12.852C9.73813 12.8016 9.63925 12.8126 9.57709 12.8784L9.57757 12.8786Z" fill="white"/>
</svg>
