<?xml version="1.0" encoding="utf-8"?>
<!-- Generator: Adobe Illustrator 28.0.0, SVG Export Plug-In . SVG Version: 6.00 Build 0)  -->
<svg version="1.1" id="_Слой_2" xmlns="http://www.w3.org/2000/svg" xmlns:xlink="http://www.w3.org/1999/xlink" x="0px"
	 y="0px" viewBox="0 0 415.6 91.5" style="enable-background:new 0 0 415.6 91.5;" xml:space="preserve" preserveAspectRatio="none">
<style type="text/css">
	.st0{fill:#1F2833;fill-opacity:0.86;}
</style>
<g id="_Слой_1-2">
	<g>
		<path class="st0" d="M0.4,40c1.4-8.6,3-19.6,11.7-28.3C19.4,4.5,29.4,0,40.4,0h216.4c13.4,0,26.3,4.5,36.9,12.7l85,66.2
			c6.6,5.1,12.7,7.8,17.4,9.4c11.3,3.9,19.5,2.7,19.5,3.2c0.2,2.3-184.5,43.3-406.9,1.7c-3.6-0.7-6.6-1.3-8.7-1.7
			c0.1-6,0.1-15.2,0-26.5C-0.2,49.3-0.6,46.4,0.4,40z"/>
		<path class="st0" d="M0,827L0,827L0,827z"/>
	</g>
</g>
</svg>
