<?xml version="1.0" encoding="utf-8"?>
<!-- Generator: Adobe Illustrator 28.0.0, SVG Export Plug-In . SVG Version: 6.00 Build 0)  -->
<svg version="1.1" id="Слой_1" xmlns="http://www.w3.org/2000/svg" xmlns:xlink="http://www.w3.org/1999/xlink" x="0px" y="0px"
	 viewBox="0 0 1540 827" style="enable-background:new 0 0 1540 827;" xml:space="preserve" preserveAspectRatio="none">
<style type="text/css">
	.st0{fill:#1F2833;fill-opacity:0.86;}
</style>
<g>
	<path class="st0" d="M256.9,0H40C17.9,0,0,17.9,0,40l-0.4,461.4c0,10.9,4.4,21.4,12.3,28.9l73.6,70.6C93,608,102.9,612,113.2,612
		H1327c22.1,0,40,17.9,40,40v132.1c0,21.8,17.6,39.6,39.6,39.9l92.9,3c22.3,0.3,40.6-17.7,40.6-39.9V132c0-22.1-17.9-40-40-40H415.6
		c-13.4,0-26.3-4.5-36.9-12.7l-85-66.5C283.2,4.5,270.2,0,256.9,0z"/>
</g>
</svg>
