<svg width="24" height="24" viewBox="0 0 24 24" fill="none" xmlns="http://www.w3.org/2000/svg">
    <path d="M22.4032 16.7726C20.6609 15.6243 19.0426 14.9267 17.4611 14.642C17.0773 14.5732 16.6727 14.699 16.3785 14.9837L15.3234 16.0062C14.9487 16.3669 14.381 16.4404 13.9442 16.1818C12.6547 15.4226 11.4548 14.4759 10.3813 13.3656C9.56299 12.521 8.82744 11.5933 8.19759 10.604C7.89188 10.1271 7.94245 9.50788 8.31713 9.09268L9.45496 7.83525C9.7308 7.53395 9.85262 7.11638 9.78597 6.72016C9.51243 5.08786 8.83432 3.41998 7.71949 1.61687C7.47813 1.22539 7.07127 1 6.65291 1C6.53568 1 6.41845 1.01661 6.30351 1.05456C5.59783 1.28233 4.87376 1.74023 4.14968 2.41641C3.36355 3.14713 2.93831 4.24799 3.00726 5.35833C3.23713 8.95034 5.02777 12.6467 8.05279 15.769C11.6019 19.4322 15.8912 21.3207 19.8218 20.9553C20.9574 20.8509 21.9642 20.208 22.5136 19.2352C22.6975 18.9078 22.8423 18.5781 22.9434 18.253C23.1135 17.7026 22.8905 17.0952 22.4032 16.7726Z" fill="white"/>
</svg>
