<svg width="19" height="16" viewBox="0 0 19 16" fill="none" xmlns="http://www.w3.org/2000/svg">
    <path d="M19 0.992276C19 0.51284 18.8549 0.221828 18.5529 0.095137C18.4249 0.0415077 18.2499 -0.00134207 18.164 3.21538e-05L18.1588 0.000112466L18.1338 0.000633377C17.9628 0.00612916 17.7938 0.0716536 14.1174 1.49681L14.0052 1.54031C12.1801 2.24786 9.42437 3.3153 7.88145 3.91236L2.92347 5.831C1.7395 6.28922 0.649199 6.73233 0.500586 6.81569C-0.0699836 7.13582 -0.1629 7.54679 0.273905 7.81776C0.478623 7.94472 4.79241 9.33633 4.98126 9.33633C5.0245 9.33633 7.34078 7.89466 10.1286 6.13265C14.2281 3.54156 15.2435 2.92781 15.4393 2.92245C15.6087 2.91792 15.6815 2.946 15.6815 3.01584C15.6815 3.07077 14.0448 4.60034 12.0444 6.41488C10.0439 8.22942 8.191 9.91486 7.92682 10.1603L7.44643 10.6067L7.29973 12.7933C7.21906 13.996 7.1685 14.9954 7.18738 15.0144C7.2062 15.0333 7.32204 15.0267 7.44472 14.9996C7.60722 14.9638 8.00543 14.627 8.91168 13.7589L10.1557 12.5673L10.7291 12.9952C13.0405 14.7203 14.6229 15.8639 14.7832 15.925C15.2649 16.1088 15.7332 15.9473 15.9525 15.5217C16.1079 15.22 19 1.43168 19 0.992276Z" fill="white"/>
</svg>
