<svg width="16" height="16" viewBox="0 0 16 16" fill="none" xmlns="http://www.w3.org/2000/svg">
    <path opacity="0.6" d="M1.28158 8.16085C2.05855 7.38388 3.31827 7.38388 4.09524 8.16085L7.41534 11.481C7.46625 11.5319 7.4917 11.5573 7.50974 11.5819C7.61315 11.7228 7.61315 11.9144 7.50974 12.0553C7.4917 12.0799 7.46625 12.1053 7.41535 12.1562C7.21173 12.3599 7.10992 12.4617 7.01161 12.5338C6.44816 12.9475 5.68143 12.9475 5.11797 12.5338C5.01966 12.4617 4.91785 12.3599 4.71424 12.1562L1.28158 8.72358C1.12619 8.56819 1.12619 8.31625 1.28158 8.16085Z" fill="#4FB74F"/>
    <path d="M14.7191 5.27657C14.8745 5.43197 14.8745 5.68391 14.7191 5.8393L7.96633 12.5921C7.18936 13.369 5.92965 13.369 5.15268 12.5921C4.99728 12.4367 4.99728 12.1847 5.15268 12.0293L11.9054 5.27657C12.6824 4.49961 13.9421 4.49961 14.7191 5.27657Z" fill="#4FB74F"/>
</svg>
