<svg width="19" height="19" viewBox="0 0 19 19" fill="none" xmlns="http://www.w3.org/2000/svg">
    <path d="M7.62954 6.7868C7.20081 5.73553 6.88481 5.12071 6.7116 5.00069C6.45316 4.82167 6.18571 4.85095 5.85017 5.095C5.14723 5.60622 4.69205 6.42696 4.69093 7.18543C4.68882 8.56057 5.48592 9.99657 7.10237 11.5299C7.99716 12.3788 8.64134 12.8536 9.52238 13.3141C10.4604 13.8043 11.1197 13.9802 12.0172 13.9798C13.1071 13.9793 13.601 13.7234 14.2849 12.8046C14.6637 12.2958 14.7071 11.9827 14.4407 11.6813C14.3102 11.5336 14.0317 11.4225 13.2197 11.1941C12.641 11.0314 12.1064 10.8982 12.0316 10.8982C11.9567 10.8982 11.7199 11.0608 11.5054 11.2596C11.0588 11.6734 10.8613 11.79 10.6074 11.79C10.1514 11.79 8.21878 10.2593 7.48119 9.3139C7.07479 8.79303 7.0654 8.5185 7.43731 8.03671C7.8649 7.48276 7.87813 7.39648 7.62954 6.7868Z" fill="white"/>
    <path fill-rule="evenodd" clip-rule="evenodd" d="M18.5002 6.29067C17.3982 3.20069 14.8119 0.936365 11.5287 0.187188C11.0961 0.0884222 10.5262 0.0324624 9.7627 0.0137349C8.56964 -0.0156199 8.52388 -0.0122759 7.5834 0.171135C4.79831 0.714384 2.28377 2.61404 1.01406 5.13394C0.253702 6.64292 -0.00510909 7.7445 7.61605e-05 9.44909C0.00435963 10.8511 0.194034 11.8195 0.69783 13.0119L1.00068 13.7286L0.483131 16.1964C0.0138279 18.4343 -0.0241974 18.6798 0.0751491 18.8314C0.135418 18.9235 0.226198 18.9993 0.276923 19C0.327648 19.0007 1.46074 18.7457 2.79493 18.4333L5.22072 17.8653L5.98874 18.166C7.19458 18.6382 8.12018 18.8092 9.46211 18.8073C10.2202 18.8063 10.803 18.7639 11.2418 18.6778C15.043 17.9323 17.9229 15.1831 18.8009 11.4619C18.9668 10.7589 18.9959 10.4584 18.9998 9.41193C19.0049 8.05537 18.9035 7.4216 18.5002 6.29067ZM2.65981 6.49117C3.57662 4.3132 5.73414 2.61821 8.17271 2.16012C8.94719 2.01461 10.5733 2.06886 11.3164 2.26506C14.0023 2.9741 16.003 4.92957 16.7275 7.55403C16.8794 8.10434 16.9011 8.34847 16.8966 9.44909C16.8907 10.8937 16.7843 11.4139 16.275 12.4888C15.3117 14.5216 13.5661 15.9723 11.3784 16.5582C10.8332 16.7042 10.5581 16.7294 9.49969 16.7296C8.04255 16.73 7.45722 16.6068 6.24635 16.0449L5.5105 15.7034L4.06704 16.0368C3.12378 16.2547 2.61622 16.3419 2.6024 16.2884C2.59075 16.2433 2.71414 15.5779 2.87661 14.8096L3.1721 13.4128L2.80823 12.6571C2.22057 11.4365 2.09657 10.8661 2.10288 9.41193C2.10875 8.0651 2.2011 7.58079 2.65981 6.49117Z" fill="white"/>
</svg>
